<svg width="30" height="30" viewBox="0 0 30 30" fill="none" xmlns="http://www.w3.org/2000/svg">
<path d="M10.6599 9.41586C11.0277 9.05138 11.0303 8.4578 10.6659 8.09005C10.3014 7.72231 9.7078 7.71966 9.34005 8.08414L7.09664 10.3076C6.25167 11.145 5.56108 11.8295 5.07132 12.4393C4.56203 13.0735 4.19337 13.7172 4.09489 14.4898C4.0517 14.8286 4.0517 15.1714 4.09489 15.5102C4.19337 16.2828 4.56203 16.9265 5.07132 17.5607C5.56108 18.1705 6.25167 18.855 7.09665 19.6924L9.34005 21.9159C9.7078 22.2803 10.3014 22.2777 10.6659 21.9099C11.0303 21.5422 11.0277 20.9486 10.6599 20.5841L8.45624 18.4C7.56187 17.5136 6.94837 16.9035 6.53324 16.3866C6.39833 16.2186 6.29307 16.0707 6.21135 15.9375H25C25.5178 15.9375 25.9375 15.5178 25.9375 15C25.9375 14.4822 25.5178 14.0625 25 14.0625H6.21135C6.29308 13.9293 6.39833 13.7814 6.53324 13.6134C6.94837 13.0965 7.56187 12.4864 8.45624 11.6L10.6599 9.41586Z" fill="#2D264B"/>
</svg>
